<svg xmlns="http://www.w3.org/2000/svg" viewBox="0 0 280 220"><g stroke="#715247" stroke-width="6" stroke-linecap="round" stroke-linejoin="round"><circle cx="80" cy="75" r="23" fill="#a77054"/><circle cx="199" cy="75" r="23" fill="#a77054"/><ellipse cx="140" cy="121" rx="82" ry="70" fill="#bd8867"/><circle cx="116" cy="111" r="5" fill="#3e302d" stroke="none"/><circle cx="165" cy="111" r="5" fill="#3e302d" stroke="none"/><ellipse cx="140" cy="130" rx="16" ry="11" fill="#6c5047" stroke="none"/><path d="M134 141q6 7 13 0" fill="none"/><circle cx="100" cy="132" r="9" fill="#f1a1af" opacity=".7" stroke="none"/><circle cx="181" cy="132" r="9" fill="#f1a1af" opacity=".7" stroke="none"/><path d="M73 151h135l-17 54H90z" fill="#d8d3fb"/><rect x="102" y="159" width="77" height="37" rx="5" fill="#a99fed"/><path d="M137 169l8 7-8 7-8-7z" fill="#fff" stroke="none"/></g><path d="M226 51l5 12 12 5-12 5-5 12-5-12-12-5 12-5z" fill="#ffd460"/></svg>